<svg xmlns="http://www.w3.org/2000/svg" width="32" height="32" viewBox="0 0 24 24">
<path fill="#8A2BE2" d="M12 2C6.48 2 2 6.58 2 12.25c0 4.5 2.87 8.3 6.84 9.65.5.1.68-.22.68-.48 0-.24-.01-.87-.01-1.72-2.78.62-3.37-1.37-3.37-1.37-.46-1.2-1.12-1.52-1.12-1.52-.92-.66.07-.65.07-.65 1.02.07 1.56 1.07 1.56 1.07.9 1.58 2.36 1.13 2.94.86.09-.67.35-1.13.63-1.39-2.22-.26-4.55-1.15-4.55-5.12 0-1.13.39-2.05 1.03-2.77-.1-.26-.45-1.32.1-2.75 0 0 .84-.28 2.75 1.07a9.36 9.36 0 0 1 5 0C17.37 6.93 18.2 7.2 18.2 7.2c.56 1.43.21 2.49.1 2.75.64.72 1.03 1.64 1.03 2.77 0 4-2.33 4.85-4.56 5.11.36.32.68.94.68 1.9 0 1.37-.01 2.47-.01 2.81 0 .27.18.59.69.48A10.38 10.38 0 0 0 22 12.25C22 6.58 17.52 2 12 2Z"/>
</svg>
