<svg xmlns="http://www.w3.org/2000/svg" width="32" height="32" fill="#25D366" viewBox="0 0 24 24">
  <path d="M20 3.5A10.5 10.5 0 0 0 3.5 20l-.6 3.5L6.5 22A10.5 10.5 0 1 0 20 3.5ZM12 19a7 7 0 0 1-3.7-1l-.3-.2-2.4 1 .6-2.3-.2-.3A7 7 0 1 1 12 19Zm4.2-4.8c-.2-.1-1.4-.7-1.6-.8-.2-.1-.4-.1-.6.1-.2.2-.7.8-.9 1-.2.2-.3.2-.5.1s-1-.4-1.9-1.1c-.7-.6-1.1-1.3-1.2-1.5-.1-.2 0-.3.1-.5.1-.2.2-.3.3-.4l.3-.4c.1-.2.2-.3.3-.5.1-.2 0-.4 0-.5 0-.1-.6-1.5-.8-2-.2-.5-.4-.4-.6-.4h-.5c-.2 0-.5.1-.7.3-.2.2-1 1-1 2.4s1 2.8 1.1 3c.1.2 2 3.1 4.9 4.3.7.3 1.3.6 1.7.7.7.2 1.3.2 1.8.1.6-.1 1.4-.6 1.6-1.2.2-.6.2-1.1.2-1.2-.1-.1-.2-.2-.4-.3Z"/>
</svg>
